<?xml version="1.0" encoding="UTF-8" standalone="no"?>
<!-- Created with Inkscape (http://www.inkscape.org/) -->

<svg
   width="210mm"
   height="148mm"
   viewBox="0 0 210 148"
   version="1.1"
   id="svg33021"
   inkscape:version="1.2.1 (9c6d41e, 2022-07-14)"
   sodipodi:docname="logo.svg"
   xmlns:inkscape="http://www.inkscape.org/namespaces/inkscape"
   xmlns:sodipodi="http://sodipodi.sourceforge.net/DTD/sodipodi-0.dtd"
   xmlns="http://www.w3.org/2000/svg"
   xmlns:svg="http://www.w3.org/2000/svg">
  <sodipodi:namedview
     id="namedview33023"
     pagecolor="#505050"
     bordercolor="#eeeeee"
     borderopacity="1"
     inkscape:showpageshadow="0"
     inkscape:pageopacity="0"
     inkscape:pagecheckerboard="0"
     inkscape:deskcolor="#505050"
     inkscape:document-units="mm"
     showgrid="false"
     inkscape:zoom="1.5321045"
     inkscape:cx="190.26117"
     inkscape:cy="191.24022"
     inkscape:window-width="2560"
     inkscape:window-height="1414"
     inkscape:window-x="0"
     inkscape:window-y="0"
     inkscape:window-maximized="1"
     inkscape:current-layer="layer2" />
  <defs
     id="defs33018">
    <filter
       style="color-interpolation-filters:sRGB;"
       inkscape:label="Drop Shadow"
       id="filter35709"
       x="-0.046697336"
       y="-0.23338108"
       width="1.0933947"
       height="1.4667622">
      <feFlood
         flood-opacity="0.74902"
         flood-color="rgb(255,255,255)"
         result="flood"
         id="feFlood35699" />
      <feComposite
         in="flood"
         in2="SourceGraphic"
         operator="in"
         result="composite1"
         id="feComposite35701" />
      <feGaussianBlur
         in="composite1"
         stdDeviation="1"
         result="blur"
         id="feGaussianBlur35703" />
      <feOffset
         dx="2.77556e-17"
         dy="0"
         result="offset"
         id="feOffset35705" />
      <feComposite
         in="SourceGraphic"
         in2="offset"
         operator="over"
         result="composite2"
         id="feComposite35707" />
    </filter>
    <filter
       style="color-interpolation-filters:sRGB;"
       inkscape:label="Drop Shadow"
       id="filter35721"
       x="-0.02649395"
       y="-0.17020131"
       width="1.0529879"
       height="1.3404026">
      <feFlood
         flood-opacity="0.74902"
         flood-color="rgb(255,255,255)"
         result="flood"
         id="feFlood35711" />
      <feComposite
         in="flood"
         in2="SourceGraphic"
         operator="in"
         result="composite1"
         id="feComposite35713" />
      <feGaussianBlur
         in="composite1"
         stdDeviation="1"
         result="blur"
         id="feGaussianBlur35715" />
      <feOffset
         dx="2.77556e-17"
         dy="0"
         result="offset"
         id="feOffset35717" />
      <feComposite
         in="SourceGraphic"
         in2="offset"
         operator="over"
         result="composite2"
         id="feComposite35719" />
    </filter>
    <filter
       style="color-interpolation-filters:sRGB;"
       inkscape:label="Drop Shadow"
       id="filter35733"
       x="-0.016527499"
       y="-0.13780827"
       width="1.033055"
       height="1.2756165">
      <feFlood
         flood-opacity="0.74902"
         flood-color="rgb(255,255,255)"
         result="flood"
         id="feFlood35723" />
      <feComposite
         in="flood"
         in2="SourceGraphic"
         operator="in"
         result="composite1"
         id="feComposite35725" />
      <feGaussianBlur
         in="composite1"
         stdDeviation="1"
         result="blur"
         id="feGaussianBlur35727" />
      <feOffset
         dx="2.77556e-17"
         dy="0"
         result="offset"
         id="feOffset35729" />
      <feComposite
         in="SourceGraphic"
         in2="offset"
         operator="over"
         result="composite2"
         id="feComposite35731" />
    </filter>
  </defs>
  <g
     inkscape:label="texto"
     inkscape:groupmode="layer"
     id="layer1"
     style="display:none"
     sodipodi:insensitive="true">
    <g
       id="g34276"
       transform="matrix(2.8433286,0,0,2.8433286,-225.06808,-146.98431)"
       inkscape:label="logo">
      <text
         id="text33218"
         y="80.288429"
         x="146.78984"
         style="font-style:normal;font-variant:normal;font-weight:bold;font-stretch:normal;font-size:7.76111px;line-height:1.25;font-family:FreeMono;-inkscape-font-specification:'FreeMono Bold';text-align:end;letter-spacing:0px;word-spacing:0px;text-anchor:end;mix-blend-mode:normal;fill:#000000;fill-opacity:1;stroke:none;stroke-width:0.264583"
         xml:space="preserve"
         inkscape:label="oven"><tspan
           style="text-align:end;text-anchor:end;stroke-width:0.264583"
           y="80.288429"
           x="146.78984"
           sodipodi:role="line"
           id="tspan33216"><tspan
             dy="4.2333307"
             id="tspan33214"
             style="text-align:end;text-anchor:end;stroke-width:0.264583"><tspan
   id="tspan33212"
   style="fill:#800000;stroke:none;stroke-width:0.264583">oven</tspan>Control</tspan></tspan></text>
      <text
         id="text33234"
         y="77.977615"
         x="146.85855"
         style="font-style:normal;font-variant:normal;font-weight:bold;font-stretch:normal;font-size:7.76111px;line-height:1.25;font-family:FreeMono;-inkscape-font-specification:'FreeMono Bold';text-align:end;letter-spacing:0px;word-spacing:0px;text-anchor:end;mix-blend-mode:normal;fill:#008080;fill-opacity:1;stroke:#000000;stroke-width:0.3;stroke-dasharray:none;stroke-opacity:1"
         xml:space="preserve"
         inkscape:label="Universal"><tspan
           id="tspan33232"
           style="font-style:normal;font-variant:normal;font-weight:bold;font-stretch:normal;font-size:11.2889px;font-family:FreeMono;-inkscape-font-specification:'FreeMono, Bold';font-variant-ligatures:normal;font-variant-caps:normal;font-variant-numeric:normal;font-variant-east-asian:normal;text-align:end;text-anchor:end;fill:#008080;fill-opacity:1;stroke:#000000;stroke-width:0.3;stroke-dasharray:none;stroke-opacity:1"
           y="77.977615"
           x="146.85855"
           sodipodi:role="line">Universal</tspan></text>
    </g>
  </g>
  <g
     inkscape:groupmode="layer"
     id="layer2"
     inkscape:label="trazos">
    <g
       id="g35738"
       inkscape:export-filename="../../src/logo.png"
       inkscape:export-xdpi="300"
       inkscape:export-ydpi="300"
       transform="matrix(0.3800373,0,0,0.3800373,10.331245,32.181113)">
      <path
         id="path34325"
         style="font-weight:bold;font-size:22.0674px;line-height:1.25;font-family:FreeMono;-inkscape-font-specification:'FreeMono Bold';text-align:end;letter-spacing:0px;word-spacing:0px;text-anchor:end;fill:#800000;stroke-width:0.752296;filter:url(#filter35709)"
         d="m 53.345581,83.408346 c -1.632984,0 -3.001291,0.492788 -4.104659,1.478462 -1.103368,0.985676 -1.654679,2.206896 -1.654679,3.663343 0,1.441733 0.551311,2.662955 1.654679,3.663342 1.103368,0.985675 2.449664,1.478463 4.038513,1.478463 1.58885,0 2.935147,-0.492788 4.038513,-1.478463 1.103368,-1.000387 1.65468,-2.221609 1.65468,-3.663342 0,-1.427023 -0.551312,-2.640735 -1.65468,-3.641122 -1.088656,-1.000387 -2.412941,-1.500683 -3.972367,-1.500683 z m 26.215971,0 c -1.60356,0 -2.956849,0.500296 -4.060217,1.500683 -1.088657,0.985675 -1.632976,2.206898 -1.632976,3.663342 0,1.500581 0.544319,2.728795 1.632976,3.685047 1.088656,0.956252 2.485965,1.434538 4.192509,1.434538 0.529615,0 1.162497,-0.03703 1.898075,-0.110588 0.75029,-0.07356 1.55175,-0.257156 2.405021,-0.551388 0.853271,-0.308942 1.280025,-0.698667 1.280025,-1.169437 0,-0.308944 -0.103062,-0.566601 -0.309025,-0.772563 -0.205962,-0.220674 -0.455593,-0.331246 -0.749825,-0.331246 -0.19125,0 -0.76509,0.125074 -1.721342,0.375171 -0.956252,0.235385 -1.824262,0.353467 -2.603975,0.353467 -1.912504,0 -3.119225,-0.647383 -3.619417,-1.942 h 9.003584 v -0.86093 c 0,-1.515291 -0.544318,-2.773026 -1.632975,-3.773413 -1.073945,-1.000387 -2.434742,-1.500683 -4.082438,-1.500683 z m 14.14539,0 c -0.603176,0 -1.125482,0.103063 -1.56683,0.309025 -0.441346,0.191249 -0.927143,0.536951 -1.456758,1.037146 V 83.69515 h -2.074292 c -0.985675,0 -1.478463,0.36823 -1.478463,1.103808 0,0.70616 0.448766,1.073872 1.346171,1.103292 v 5.229655 h -0.132292 c -0.970964,0 -1.456242,0.368229 -1.456242,1.103809 0,0.735578 0.485278,1.103292 1.456242,1.103292 h 2.471684 c 0.970964,0 1.456242,-0.367714 1.456242,-1.103292 0,-0.73558 -0.485278,-1.103809 -1.456242,-1.103809 h -0.132808 v -4.016292 c 0.514904,-0.55904 0.971179,-0.948764 1.368392,-1.169438 0.411923,-0.220674 0.87519,-0.330729 1.390096,-0.330729 1.32404,0 1.986442,0.529302 1.986442,1.588533 v 3.927926 c -0.897406,0 -1.346171,0.368229 -1.346171,1.103809 0,0.735578 0.492788,1.103292 1.478462,1.103292 h 1.963705 c 0.970963,0 1.456758,-0.367714 1.456758,-1.103292 0,-0.73558 -0.448765,-1.103809 -1.346171,-1.103809 v -4.016292 c 0,-1.176926 -0.367713,-2.088958 -1.103291,-2.736267 -0.73558,-0.64731 -1.677132,-0.971 -2.824634,-0.971 z M 61.355945,83.69515 c -0.970964,0 -1.456242,0.36823 -1.456242,1.103808 0,0.73558 0.485278,1.103292 1.456242,1.103292 h 0.309025 l 3.685046,7.436756 h 2.295467 L 71.33053,85.90225 h 0.35295 c 0.970963,0 1.456758,-0.367712 1.456758,-1.103292 0,-0.426635 -0.125074,-0.713813 -0.37517,-0.860929 C 72.51497,83.776202 72.154249,83.69515 71.68348,83.69515 h -2.979147 c -0.970964,0 -1.456241,0.36823 -1.456241,1.103808 0,0.73558 0.485277,1.103292 1.456241,1.103292 h 0.220659 l -2.361096,4.744413 -2.405021,-4.744413 h 0.11007 c 0.970964,0 1.456242,-0.367712 1.456242,-1.103292 0,-0.426635 -0.125074,-0.713813 -0.375171,-0.860929 -0.250096,-0.161827 -0.6103,-0.242879 -1.081071,-0.242879 z m -8.032585,1.920296 c 0.956252,0 1.765739,0.286661 2.427759,0.860413 0.676732,0.559039 1.014925,1.250442 1.014925,2.074292 0,0.823847 -0.338193,1.522761 -1.014925,2.096512 -0.66202,0.559041 -1.486008,0.838709 -2.471684,0.838709 -0.985675,0 -1.816655,-0.279668 -2.493388,-0.838709 -0.66202,-0.573751 -0.993221,-1.272665 -0.993221,-2.096512 0,-0.838561 0.338194,-1.537474 1.014925,-2.096513 0.676734,-0.55904 1.515223,-0.838192 2.515609,-0.838192 z m 26.260413,0 c 0.809136,0 1.508049,0.183599 2.096513,0.551387 0.588462,0.353078 0.970678,0.831364 1.147216,1.434538 h -6.487459 c 0.161827,-0.588462 0.536534,-1.066748 1.124996,-1.434538 0.603174,-0.367788 1.309598,-0.551387 2.118734,-0.551387 z" />
      <path
         id="path34333"
         style="font-weight:bold;font-size:22.0674px;line-height:1.25;font-family:FreeMono;-inkscape-font-specification:'FreeMono Bold';text-align:end;letter-spacing:0px;word-spacing:0px;text-anchor:end;stroke-width:0.752296;filter:url(#filter35721)"
         d="m 182.85861,79.591007 c -0.48549,0 -0.8532,0.08053 -1.1033,0.242363 -0.2501,0.147116 -0.37517,0.434294 -0.37517,0.860929 0,0.73558 0.49279,1.103292 1.47847,1.103292 h 1.72134 v 9.334314 h -2.69183 c -0.47077,0 -0.83149,0.08105 -1.08159,0.242879 -0.25009,0.147116 -0.37517,0.434293 -0.37517,0.86093 0,0.735579 0.4858,1.103292 1.45676,1.103292 h 7.59075 c 0.97096,0 1.45676,-0.367713 1.45676,-1.103292 0,-0.73558 -0.4858,-1.103809 -1.45676,-1.103809 h -2.69182 V 79.591007 Z m -76.50696,0.573609 c -1.70655,0 -3.1339,0.59585 -4.28139,1.787488 -1.14751,1.191638 -1.72135,2.669998 -1.72135,4.435388 v 1.456758 c 0,1.677121 0.61087,3.06692 1.83193,4.170289 1.23578,1.088656 2.78768,1.633492 4.65605,1.633492 1.47116,0 2.70687,-0.294687 3.70727,-0.883151 1.0151,-0.588463 1.5229,-1.198814 1.5229,-1.831412 0,-0.294232 -0.11057,-0.551889 -0.33124,-0.772563 -0.22068,-0.220674 -0.47833,-0.330729 -0.77257,-0.330729 -0.19125,0 -0.39686,0.08804 -0.61753,0.264583 -0.20596,0.161827 -0.41208,0.345942 -0.61805,0.551904 -0.20596,0.191251 -0.55917,0.374849 -1.05937,0.551388 -0.48548,0.161827 -1.07383,0.242879 -1.76526,0.242879 -1.32405,0 -2.38316,-0.330683 -3.17759,-0.992704 -0.77971,-0.662021 -1.16944,-1.545048 -1.16944,-2.648417 v -1.412317 c 0,-1.162216 0.36772,-2.118268 1.1033,-2.868559 0.73558,-0.765002 1.66211,-1.147733 2.78019,-1.147733 0.32365,0 0.67686,0.03703 1.05936,0.110587 0.3825,0.07356 0.79424,0.250164 1.23559,0.529684 0.45606,0.264809 0.72821,0.617502 0.81649,1.05885 0.0442,0.235385 0.0812,0.419499 0.11058,0.551904 0.0441,0.117692 0.1472,0.250276 0.30903,0.397392 0.17653,0.147116 0.39716,0.220658 0.66197,0.220658 0.73558,0 1.1033,-0.485794 1.1033,-1.456759 v -1.853633 c 0,-0.470771 -0.0811,-0.830974 -0.24288,-1.081071 -0.14712,-0.250097 -0.43378,-0.375171 -0.86042,-0.375171 -0.36779,0 -0.67698,0.176605 -0.92707,0.529683 l -0.22066,-0.08837 c -1.05923,-0.500194 -2.10333,-0.750342 -3.13314,-0.750342 z m 36.60965,0.132292 c -0.73558,0 -1.10381,0.485793 -1.10381,1.456758 v 1.941484 h -0.77204 c -0.47078,0 -0.8315,0.08105 -1.08159,0.242879 -0.2501,0.147116 -0.37517,0.434293 -0.37517,0.860929 0,0.73558 0.48579,1.103292 1.45676,1.103292 h 0.77204 v 4.744413 c 0,0.941541 0.36823,1.684476 1.10381,2.228805 0.73558,0.544329 1.72866,0.816488 2.97915,0.816488 0.61788,0 1.30177,-0.08105 2.05207,-0.24288 0.765,-0.147116 1.4564,-0.382245 2.07429,-0.7059 0.6326,-0.338366 0.94878,-0.713588 0.94878,-1.125512 0,-0.308943 -0.10307,-0.573593 -0.30903,-0.794267 -0.20596,-0.220674 -0.4556,-0.331246 -0.74982,-0.331246 -0.16183,0 -0.36795,0.05153 -0.61805,0.154512 -0.23539,0.102982 -0.47803,0.220547 -0.72812,0.35295 -0.23539,0.117693 -0.5961,0.228265 -1.08159,0.331246 -0.47077,0.102982 -0.99308,0.154513 -1.56683,0.154513 -0.76501,0 -1.27229,-0.09607 -1.52239,-0.287321 -0.2501,-0.191251 -0.37517,-0.514424 -0.37517,-0.970483 V 85.90225 h 3.99407 c 0.97097,0 1.45624,-0.367712 1.45624,-1.103292 0,-0.426636 -0.12507,-0.713813 -0.37517,-0.860929 -0.25009,-0.161827 -0.61029,-0.242879 -1.08107,-0.242879 h -3.99407 v -1.941484 c 0,-0.470771 -0.0811,-0.83149 -0.24288,-1.081588 -0.14711,-0.250097 -0.43377,-0.37517 -0.86041,-0.37517 z m -23.41356,3.111438 c -1.63298,0 -3.00129,0.492787 -4.10466,1.478462 -1.10336,0.985677 -1.65519,2.206895 -1.65519,3.663343 0,1.441735 0.55183,2.662954 1.65519,3.663342 1.10337,0.985676 2.44966,1.478463 4.03852,1.478463 1.58885,0 2.93463,-0.492787 4.03799,-1.478463 1.10337,-1.000388 1.6552,-2.221607 1.6552,-3.663342 0,-1.427024 -0.55183,-2.640734 -1.6552,-3.641122 -1.08866,-1.000388 -2.41242,-1.500683 -3.97185,-1.500683 z m 13.88029,0 c -0.60317,0 -1.12548,0.103063 -1.56683,0.309025 -0.44134,0.19125 -0.92662,0.536951 -1.45624,1.037146 V 83.69515 h -2.07429 c -0.98567,0 -1.47898,0.368229 -1.47898,1.103808 0,0.70616 0.44876,1.073872 1.34617,1.103292 v 5.229655 h -0.13229 c -0.97097,0 -1.45624,0.368229 -1.45624,1.103809 0,0.735579 0.48527,1.103292 1.45624,1.103292 h 2.47168 c 0.97097,0 1.45624,-0.367713 1.45624,-1.103292 0,-0.73558 -0.48527,-1.103809 -1.45624,-1.103809 h -0.13229 v -4.016292 c 0.51491,-0.55904 0.97066,-0.948764 1.36788,-1.169438 0.41192,-0.220674 0.8757,-0.330729 1.39061,-0.330729 1.32404,0 1.98592,0.5293 1.98592,1.588533 v 3.927926 c -0.8974,0 -1.34617,0.368229 -1.34617,1.103809 0,0.735579 0.49279,1.103292 1.47847,1.103292 h 1.96422 c 0.97096,0 1.45624,-0.367713 1.45624,-1.103292 0,-0.73558 -0.44877,-1.103809 -1.34617,-1.103809 v -4.016292 c 0,-1.176927 -0.36772,-2.088957 -1.10329,-2.736267 -0.73558,-0.64731 -1.67713,-0.971 -2.82464,-0.971 z m 39.08134,0 c -1.63299,0 -3.0013,0.492787 -4.10466,1.478462 -1.10337,0.985677 -1.6552,2.206895 -1.6552,3.663343 0,1.441735 0.55183,2.662954 1.6552,3.663342 1.10336,0.985676 2.44966,1.478463 4.03851,1.478463 1.58885,0 2.93463,-0.492787 4.038,-1.478463 1.10336,-1.000388 1.65519,-2.221607 1.65519,-3.663342 0,-1.427024 -0.55183,-2.640734 -1.65519,-3.641122 -1.08866,-1.000388 -2.41242,-1.500683 -3.97185,-1.500683 z m -10.10688,0.02222 c -0.54433,0 -1.07414,0.117565 -1.58905,0.35295 -0.51491,0.235386 -1.2133,0.68415 -2.096,1.346171 V 83.69515 h -2.97914 c -0.97097,0 -1.45676,0.368229 -1.45676,1.103808 0,0.73558 0.48579,1.103292 1.45676,1.103292 h 0.77204 v 5.229655 h -1.28002 c -0.47077,0 -0.83097,0.08105 -1.08107,0.242879 -0.2501,0.147116 -0.37517,0.434293 -0.37517,0.86093 0,0.735579 0.48527,1.103292 1.45624,1.103292 h 6.55412 c 0.98567,0 1.47846,-0.367713 1.47846,-1.103292 0,-0.73558 -0.49279,-1.103809 -1.47846,-1.103809 h -3.067 v -3.24373 c 1.05924,-0.867983 1.83869,-1.456323 2.33888,-1.765266 0.51491,-0.323655 0.94917,-0.485759 1.30225,-0.485759 0.25009,0 0.53675,0.132583 0.86041,0.397392 0.32365,0.264808 0.61032,0.397392 0.86041,0.397392 0.29423,0 0.55189,-0.110573 0.77256,-0.331246 0.22068,-0.220674 0.33073,-0.485324 0.33073,-0.794267 0,-0.485482 -0.30867,-0.919745 -0.92656,-1.302246 -0.61788,-0.382501 -1.23574,-0.573609 -1.85363,-0.573609 z m -42.87697,2.18488 c 0.95625,0 1.76522,0.286661 2.42724,0.860413 0.67674,0.55904 1.01544,1.250442 1.01544,2.074292 0,0.823848 -0.3387,1.52276 -1.01544,2.096512 -0.66202,0.559041 -1.48549,0.838709 -2.47116,0.838709 -0.98568,0 -1.81718,-0.279668 -2.49391,-0.838709 -0.66202,-0.573752 -0.9927,-1.272664 -0.9927,-2.096512 0,-0.838561 0.33819,-1.537473 1.01492,-2.096513 0.67673,-0.55904 1.51523,-0.838192 2.51561,-0.838192 z m 52.96163,0 c 0.95625,0 1.76522,0.286661 2.42724,0.860413 0.67673,0.55904 1.01544,1.250442 1.01544,2.074292 0,0.823848 -0.33871,1.52276 -1.01544,2.096512 -0.66202,0.559041 -1.48549,0.838709 -2.47117,0.838709 -0.98567,0 -1.81717,-0.279668 -2.4939,-0.838709 -0.66203,-0.573752 -0.99271,-1.272664 -0.99271,-2.096512 0,-0.838561 0.33819,-1.537473 1.01493,-2.096513 0.67673,-0.55904 1.51521,-0.838192 2.51561,-0.838192 z" />
      <path
         id="path34306"
         style="font-weight:bold;font-size:32.0981px;line-height:1.25;font-family:FreeMono;-inkscape-font-specification:'FreeMono, Bold';text-align:end;letter-spacing:0px;word-spacing:0px;text-anchor:end;fill:#008080;stroke:#000000;stroke-width:0.852999;filter:url(#filter35733)"
         d="m 64.684941,54.734644 v 3.370336 h 3.787365 v -3.370336 z m 114.076239,0 c -0.70615,0 -1.24129,0.117564 -1.60507,0.35295 -0.36378,0.213987 -0.5457,0.631557 -0.5457,1.25212 0,1.069935 0.71706,1.604553 2.15077,1.604553 h 2.50372 v 13.577466 h -3.91604 c -0.68475,0 -1.20925,0.118081 -1.57303,0.353466 -0.36378,0.213988 -0.5457,0.631041 -0.5457,1.251604 0,1.069935 0.70642,1.60507 2.11873,1.60507 h 11.04171 c 1.41232,0 2.11821,-0.535135 2.11821,-1.60507 0,-1.069936 -0.70589,-1.60507 -2.11821,-1.60507 h -3.91604 V 54.734644 Z M 21.609017,56.018286 c -0.684759,0 -1.208736,0.118081 -1.572514,0.353467 -0.363778,0.213987 -0.545703,0.63104 -0.545703,1.251603 0,1.027136 0.652699,1.56227 1.95802,1.60507 v 8.92297 c 0,2.032877 0.7277,3.712765 2.182812,5.039485 1.455113,1.32672 3.177564,1.99006 5.167644,1.99006 1.99008,0 3.71253,-0.652699 5.167643,-1.95802 1.455112,-1.305322 2.182812,-2.995851 2.182812,-5.071525 v -8.92297 c 1.305322,0 1.95802,-0.535134 1.95802,-1.60507 0,-0.620563 -0.181924,-1.037616 -0.545703,-1.251603 -0.342379,-0.235386 -0.866873,-0.353467 -1.57303,-0.353467 h -4.172355 c -0.684759,0 -1.209253,0.118081 -1.573031,0.353467 -0.363778,0.213987 -0.545703,0.63104 -0.545703,1.251603 0,1.069936 0.706419,1.60507 2.118734,1.60507 h 1.122928 v 9.211841 c 0,0.984341 -0.406412,1.818964 -1.219563,2.503723 -0.813152,0.684759 -1.786621,1.027328 -2.920752,1.027328 -1.134132,0 -2.108118,-0.342569 -2.921269,-1.027328 -0.813151,-0.684759 -1.219564,-1.519382 -1.219564,-2.503723 v -9.211841 h 1.123446 c 1.412314,0 2.118734,-0.535134 2.118734,-1.60507 0,-0.641961 -0.181926,-1.069655 -0.545704,-1.283642 -0.363778,-0.213988 -0.888272,-0.321428 -1.57303,-0.321428 z m 27.476359,4.269507 c -0.877347,0 -1.637486,0.149486 -2.279447,0.449068 -0.641962,0.278183 -1.347864,0.780879 -2.118217,1.508435 v -1.540474 h -3.017387 c -1.433714,0 -2.150257,0.535134 -2.150257,1.60507 0,1.027135 0.652699,1.561753 1.95802,1.604553 v 7.607288 h -0.192753 c -1.412314,0 -2.118733,0.535134 -2.118733,1.60507 0,1.069935 0.706419,1.60507 2.118733,1.60507 h 3.59513 c 1.412315,0 2.118217,-0.535135 2.118217,-1.60507 0,-1.069936 -0.705902,-1.60507 -2.118217,-1.60507 h -0.192753 v -5.841504 c 0.748954,-0.813152 1.412294,-1.380208 1.990059,-1.701188 0.599164,-0.320981 1.273144,-0.481625 2.022099,-0.481625 1.925884,0 2.888712,0.770263 2.888712,2.31097 v 5.713347 c -1.305321,0 -1.95802,0.535134 -1.95802,1.60507 0,1.069935 0.71706,1.60507 2.150773,1.60507 h 2.856674 c 1.412315,0 2.118733,-0.535135 2.118733,-1.60507 0,-1.069936 -0.652698,-1.60507 -1.95802,-1.60507 v -5.841504 c 0,-1.711897 -0.535134,-3.038576 -1.60507,-3.980119 -1.069935,-0.941544 -2.439176,-1.412317 -4.108276,-1.412317 z m 56.460124,0 c -2.33246,0 -4.3012,0.727183 -5.906104,2.182296 -1.583504,1.433714 -2.375049,3.209885 -2.375049,5.328357 0,2.182669 0.791545,3.96948 2.375049,5.360396 1.583504,1.390916 3.616604,2.086178 6.098854,2.086178 0.77035,0 1.69062,-0.0532 2.76055,-0.160197 1.09134,-0.106994 2.25737,-0.374561 3.4985,-0.802535 1.24112,-0.449373 1.8619,-1.01643 1.8619,-1.701189 0,-0.449372 -0.15,-0.823863 -0.44958,-1.123445 -0.29958,-0.320981 -0.66344,-0.481625 -1.09141,-0.481625 -0.27819,0 -1.11281,0.181925 -2.50372,0.545704 -1.39092,0.342379 -2.65324,0.513663 -3.78737,0.513663 -2.78183,0 -4.53672,-0.941547 -5.26428,-2.824633 h 13.09636 v -1.251604 c 0,-2.204067 -0.79206,-4.033958 -2.37557,-5.48907 -1.5621,-1.455113 -3.54148,-2.182296 -5.93813,-2.182296 z m 38.74233,0 c -1.92588,0 -3.50949,0.417053 -4.75061,1.251603 -1.24113,0.813151 -1.86139,1.861622 -1.86139,3.145545 0,1.262524 0.5027,2.235993 1.50844,2.920752 1.00574,0.684758 2.63191,1.144891 4.87877,1.380277 2.69625,0.278183 4.04472,0.834599 4.04472,1.669149 0,0.363778 -0.37449,0.685065 -1.12345,0.963249 -0.72755,0.278183 -1.60526,0.417028 -2.6324,0.417028 -1.7547,0 -3.09202,-0.417053 -4.01216,-1.251603 -0.27818,-0.941544 -0.82395,-1.412317 -1.63711,-1.412317 -1.09133,0 -1.6371,0.716543 -1.6371,2.150257 v 1.059366 c 0,1.412316 0.54577,2.118734 1.6371,2.118734 0.36378,0 0.70635,-0.128722 1.02733,-0.385506 1.30533,0.620562 2.88893,0.930693 4.75062,0.930693 2.07567,0 3.78748,-0.427695 5.1356,-1.283643 1.34812,-0.855948 2.0221,-1.936857 2.0221,-3.242179 0,-0.748955 -0.2032,-1.444217 -0.60978,-2.086178 -0.38518,-0.641961 -0.93095,-1.155297 -1.63711,-1.540474 -0.74895,-0.427975 -1.82935,-0.749262 -3.24166,-0.963249 -1.41232,-0.213987 -2.58951,-0.406553 -3.53106,-0.577743 -0.94154,-0.192588 -1.41231,-0.502718 -1.41231,-0.930692 0,-0.299583 0.32128,-0.556509 0.96325,-0.770496 0.66336,-0.235386 1.40118,-0.35295 2.21433,-0.35295 0.96294,0 1.72257,0.117564 2.27893,0.35295 0.57777,0.235386 0.94162,0.492312 1.09141,0.770496 0.17119,0.256784 0.38555,0.502554 0.64234,0.737939 0.25678,0.235386 0.57756,0.353467 0.96273,0.353467 0.62056,0 1.03762,-0.181925 1.2516,-0.545703 0.23539,-0.363778 0.35347,-0.888272 0.35347,-1.573031 V 62.40601 c 0,-1.412315 -0.50321,-2.118217 -1.50895,-2.118217 -0.44938,0 -0.79143,0.277691 -1.02681,0.834058 -1.19834,-0.556367 -2.57873,-0.834058 -4.14084,-0.834058 z m 19.06602,0 c -1.86168,0 -3.7017,0.320771 -5.52059,0.962732 -0.64196,0.213987 -0.96273,0.663479 -0.96273,1.348238 0,0.470772 0.14949,0.866544 0.44907,1.187524 0.29958,0.299583 0.67407,0.449069 1.12344,0.449069 0.23539,0 0.90937,-0.117564 2.0221,-0.35295 1.11273,-0.256785 2.108,-0.38499 2.98535,-0.38499 1.99008,0 2.98483,0.523977 2.98483,1.572514 v 0.738456 c -1.26253,-0.213987 -2.37484,-0.32091 -3.33778,-0.32091 -2.31107,0 -4.18352,0.545775 -5.61723,1.637109 -1.43371,1.069936 -2.15077,2.332253 -2.15077,3.787366 0,1.198328 0.56705,2.225517 1.70119,3.081465 1.13413,0.83455 2.49273,1.251604 4.07623,1.251604 1.94728,0 3.72345,-0.417054 5.32836,-1.251604 v 0.738457 h 3.75584 c 1.41231,0 2.11822,-0.535135 2.11822,-1.60507 0,-1.069936 -0.70591,-1.60507 -2.11822,-1.60507 h -0.51366 v -6.483842 c 0,-1.49791 -0.56706,-2.663945 -1.70119,-3.498495 -1.11273,-0.83455 -2.65377,-1.251603 -4.62246,-1.251603 z m -33.60621,0.03204 c -0.79176,0 -1.56253,0.170768 -2.31149,0.513147 -0.74895,0.34238 -1.76499,0.995079 -3.04891,1.95802 v -2.086177 h -4.33359 c -1.41231,0 -2.11821,0.535134 -2.11821,1.60507 0,1.069935 0.7059,1.604553 2.11821,1.604553 h 1.12345 v 7.607288 h -1.86139 c -0.68475,0 -1.20925,0.118081 -1.57303,0.353466 -0.36378,0.213988 -0.5457,0.631041 -0.5457,1.251604 0,1.069935 0.70642,1.60507 2.11873,1.60507 h 9.53276 c 1.43371,0 2.15077,-0.535135 2.15077,-1.60507 0,-1.069936 -0.71706,-1.60507 -2.15077,-1.60507 h -4.46123 v -4.718059 c 1.5407,-1.262523 2.67482,-2.118945 3.40238,-2.568318 0.74896,-0.470773 1.37985,-0.7059 1.89342,-0.7059 0.36378,0 0.78135,0.192565 1.25212,0.577742 0.47077,0.385177 0.88783,0.577743 1.2516,0.577743 0.42798,0 0.80247,-0.160644 1.12345,-0.481625 0.32098,-0.32098 0.48162,-0.706112 0.48162,-1.155485 0,-0.706157 -0.44949,-1.337057 -1.34823,-1.893424 -0.89875,-0.556367 -1.79722,-0.834575 -2.69596,-0.834575 z m -66.539612,0.38499 c -0.684759,0 -1.219377,0.106923 -1.604553,0.32091 -0.363778,0.213988 -0.545703,0.642198 -0.545703,1.28416 0,1.069935 0.716542,1.604553 2.150256,1.604553 h 2.503723 v 7.607288 h -3.91604 c -0.684758,0 -1.208735,0.118081 -1.572514,0.353466 -0.363777,0.213988 -0.545703,0.631041 -0.545703,1.251604 0,1.069935 0.705903,1.60507 2.118217,1.60507 h 11.04222 c 1.412316,0 2.118217,-0.535135 2.118217,-1.60507 0,-1.069936 -0.705901,-1.60507 -2.118217,-1.60507 h -3.91604 V 60.704822 Z m 15.856397,0 c -1.412315,0 -2.118217,0.535134 -2.118217,1.60507 0,1.069935 0.705902,1.604553 2.118217,1.604553 h 0.449585 l 5.360396,10.817428 h 3.338297 L 93.5731,63.914445 h 0.513664 c 1.412315,0 2.118216,-0.534618 2.118216,-1.604553 0,-0.620563 -0.181924,-1.038133 -0.545703,-1.25212 -0.363777,-0.235386 -0.887754,-0.35295 -1.572513,-0.35295 h -4.333586 c -1.412315,0 -2.118217,0.535134 -2.118217,1.60507 0,1.069935 0.705902,1.604553 2.118217,1.604553 h 0.320911 l -3.434416,6.901388 -3.498495,-6.901388 h 0.160197 c 1.412316,0 2.118734,-0.534618 2.118734,-1.604553 0,-0.620563 -0.181925,-1.038133 -0.545703,-1.25212 -0.363778,-0.235386 -0.888272,-0.35295 -1.573031,-0.35295 z m 26.513105,2.792594 c 1.17693,0 2.19348,0.267567 3.04943,0.802535 0.85595,0.513569 1.41236,1.208831 1.66915,2.086178 h -9.43663 c 0.23538,-0.855949 0.78064,-1.55121 1.63659,-2.086178 0.87735,-0.534968 1.90453,-0.802535 3.08146,-0.802535 z m 57.32726,4.942851 c 1.02713,0 2.21445,0.11808 3.56257,0.353467 v 1.604553 c -1.77609,1.091335 -3.5411,1.637109 -5.2958,1.637109 -0.68476,0 -1.26246,-0.117563 -1.73323,-0.35295 -0.47077,-0.235385 -0.70642,-0.534875 -0.70642,-0.898653 0,-0.620563 0.41758,-1.166338 1.25212,-1.637109 0.85596,-0.470772 1.82942,-0.706417 2.92076,-0.706417 z" />
    </g>
  </g>
</svg>
